<svg width="200" height="50" viewBox="0 0 200 50" fill="none" xmlns="http://www.w3.org/2000/svg">
<g clip-path="url(#clip0_8_5)">
<rect width="200" height="50" rx="5" fill="white"/>
<rect x="15" y="7" width="41" height="36" fill="#CDCDCD"/>
<path d="M49.2825 30.836C48.4611 31.1 47.4125 31.232 46.1365 31.232C44.3325 31.232 42.9098 30.6013 41.8685 29.34C40.9298 28.2107 40.4605 26.766 40.4605 25.006C40.4605 23.202 41.0031 21.7133 42.0885 20.54C43.1885 19.3813 44.5745 18.802 46.2465 18.802C47.3611 18.802 48.3731 18.956 49.2825 19.264L49.1065 21.398C48.2411 21.046 47.3391 20.87 46.4005 20.87C45.2565 20.87 44.3618 21.2513 43.7165 22.014C43.0858 22.762 42.7705 23.7593 42.7705 25.006C42.7705 26.1793 43.0931 27.1693 43.7385 27.976C44.3691 28.768 45.2051 29.164 46.2465 29.164C47.1998 29.164 48.1531 28.988 49.1065 28.636L49.2825 30.836ZM54.0207 30.946H51.6227V13.434H54.0207V30.946ZM62.1827 20.826C61.1854 20.826 60.3934 21.222 59.8067 22.014C59.2494 22.7913 58.9707 23.796 58.9707 25.028C58.9707 26.26 59.2494 27.2647 59.8067 28.042C60.3934 28.834 61.1854 29.23 62.1827 29.23C63.18 29.23 63.9647 28.834 64.5367 28.042C65.1087 27.2793 65.3947 26.2747 65.3947 25.028C65.3947 23.796 65.1087 22.7913 64.5367 22.014C63.9647 21.222 63.18 20.826 62.1827 20.826ZM62.1827 18.758C64.0014 18.758 65.4167 19.4107 66.4287 20.716C67.338 21.8747 67.7927 23.312 67.7927 25.028C67.7927 26.744 67.338 28.1813 66.4287 29.34C65.4167 30.6453 64.0014 31.298 62.1827 31.298C60.3494 31.298 58.9267 30.6453 57.9147 29.34C57.02 28.2107 56.5727 26.7733 56.5727 25.028C56.5727 23.2827 57.02 21.8453 57.9147 20.716C58.9267 19.4107 60.3494 18.758 62.1827 18.758ZM78.0985 31.056V29.846C77.3065 30.814 76.2652 31.298 74.9745 31.298C73.5372 31.298 72.4445 30.8653 71.6965 30C71.0365 29.1933 70.7065 28.108 70.7065 26.744V19.044H73.0605V26.304C73.0605 28.2547 73.7718 29.23 75.1945 29.23C76.1478 29.23 76.8738 28.8707 77.3725 28.152C77.7685 27.5653 77.9665 26.766 77.9665 25.754V19.044H80.2985V28.02C80.2985 29.1053 80.3425 30.1173 80.4305 31.056H78.0985ZM88.6463 20.65C87.649 20.65 86.9083 21.0973 86.4243 21.992C86.0136 22.7253 85.8083 23.7227 85.8083 24.984C85.8083 27.7853 86.7543 29.186 88.6463 29.186C89.5556 29.186 90.2743 28.7313 90.8023 27.822C91.2276 27.0447 91.4403 26.0767 91.4403 24.918C91.4403 23.7593 91.2276 22.7913 90.8023 22.014C90.289 21.1047 89.5703 20.65 88.6463 20.65ZM93.6623 31.056H91.4403V29.956C90.707 30.8653 89.7023 31.32 88.4263 31.32C86.8276 31.32 85.5883 30.726 84.7083 29.538C83.887 28.3793 83.4763 26.8613 83.4763 24.984C83.4763 23.048 83.8576 21.5227 84.6203 20.408C85.4563 19.1613 86.725 18.538 88.4263 18.538C89.5996 18.538 90.6043 19.022 91.4403 19.99V13.39H93.6623V31.056ZM107.422 34.048H95.6741V32.552H107.422V34.048ZM111.578 34.18H109.268V19H111.578L111.512 20.342C111.571 20.2687 111.644 20.1807 111.732 20.078C111.82 19.9607 111.923 19.8433 112.04 19.726C112.686 19.0807 113.558 18.758 114.658 18.758C116.272 18.758 117.511 19.3007 118.376 20.386C119.139 21.3833 119.52 22.7913 119.52 24.61C119.52 26.458 119.117 27.9247 118.31 29.01C117.46 30.1687 116.22 30.748 114.592 30.748C113.287 30.748 112.282 30.2713 111.578 29.318V34.18ZM114.394 20.892C113.485 20.892 112.781 21.2733 112.282 22.036C111.813 22.7253 111.578 23.6273 111.578 24.742C111.578 25.8273 111.806 26.7293 112.26 27.448C112.774 28.2253 113.47 28.614 114.35 28.614C116.257 28.614 117.21 27.3013 117.21 24.676C117.21 22.1533 116.272 20.892 114.394 20.892ZM128.374 21.2C128.184 21.1707 128.008 21.1487 127.846 21.134C127.685 21.1047 127.524 21.09 127.362 21.09C126.512 21.09 125.881 21.508 125.47 22.344C125.089 23.0773 124.898 23.9867 124.898 25.072V31.034H122.544V21.97C122.544 21.4127 122.53 20.892 122.5 20.408C122.486 19.9093 122.464 19.4473 122.434 19.022H124.81V20.496C125.485 19.3373 126.343 18.758 127.384 18.758C127.707 18.758 128.037 18.802 128.374 18.89V21.2ZM135.53 20.826C134.533 20.826 133.741 21.222 133.154 22.014C132.597 22.7913 132.318 23.796 132.318 25.028C132.318 26.26 132.597 27.2647 133.154 28.042C133.741 28.834 134.533 29.23 135.53 29.23C136.528 29.23 137.312 28.834 137.884 28.042C138.456 27.2793 138.742 26.2747 138.742 25.028C138.742 23.796 138.456 22.7913 137.884 22.014C137.312 21.222 136.528 20.826 135.53 20.826ZM135.53 18.758C137.349 18.758 138.764 19.4107 139.776 20.716C140.686 21.8747 141.14 23.312 141.14 25.028C141.14 26.744 140.686 28.1813 139.776 29.34C138.764 30.6453 137.349 31.298 135.53 31.298C133.697 31.298 132.274 30.6453 131.262 29.34C130.368 28.2107 129.92 26.7733 129.92 25.028C129.92 23.2827 130.368 21.8453 131.262 20.716C132.274 19.4107 133.697 18.758 135.53 18.758ZM146.804 18.846V30.264C146.804 30.9973 146.745 31.606 146.628 32.09C146.525 32.5887 146.349 32.992 146.1 33.3C145.865 33.608 145.543 33.828 145.132 33.96C144.721 34.092 144.223 34.158 143.636 34.158C143.416 34.158 143.196 34.1507 142.976 34.136C142.756 34.1213 142.543 34.0993 142.338 34.07V31.848C142.602 31.9507 142.895 32.002 143.218 32.002C143.775 32.002 144.142 31.7967 144.318 31.386C144.421 31.1807 144.472 30.7407 144.472 30.066V18.846H146.804ZM146.804 16.602H144.472V13.874H146.804V16.602ZM159.091 25.864H151.677C151.721 26.92 152.007 27.7413 152.535 28.328C153.077 28.9587 153.825 29.274 154.779 29.274C156.099 29.274 157.265 28.988 158.277 28.416V30.638C157.103 31.078 155.915 31.298 154.713 31.298C152.821 31.298 151.413 30.6967 150.489 29.494C149.682 28.4233 149.279 26.9273 149.279 25.006C149.279 23.158 149.726 21.6547 150.621 20.496C151.515 19.3373 152.718 18.758 154.229 18.758C155.915 18.758 157.177 19.3593 158.013 20.562C158.731 21.5887 159.091 22.9453 159.091 24.632V25.864ZM156.693 23.774C156.693 22.9527 156.48 22.2633 156.055 21.706C155.615 21.1193 155.035 20.826 154.317 20.826C153.583 20.826 152.96 21.1267 152.447 21.728C151.933 22.3293 151.677 23.0113 151.677 23.774H156.693ZM170.089 30.836C169.268 31.1 168.219 31.232 166.943 31.232C165.139 31.232 163.716 30.6013 162.675 29.34C161.736 28.2107 161.267 26.766 161.267 25.006C161.267 23.202 161.81 21.7133 162.895 20.54C163.995 19.3813 165.381 18.802 167.053 18.802C168.168 18.802 169.18 18.956 170.089 19.264L169.913 21.398C169.048 21.046 168.146 20.87 167.207 20.87C166.063 20.87 165.168 21.2513 164.523 22.014C163.892 22.762 163.577 23.7593 163.577 25.006C163.577 26.1793 163.9 27.1693 164.545 27.976C165.176 28.768 166.012 29.164 167.053 29.164C168.006 29.164 168.96 28.988 169.913 28.636L170.089 30.836ZM178.369 30.946C177.812 31.1807 177.181 31.298 176.477 31.298C175.084 31.298 174.182 30.924 173.771 30.176C173.463 29.6773 173.309 28.7167 173.309 27.294V21.068H171.417V18.89H173.309V16.272L175.685 15.502V18.89H178.017V21.068H175.685V27.91C175.685 28.7607 176.074 29.186 176.851 29.186C177.365 29.186 177.812 29.0907 178.193 28.9L178.369 30.946Z" fill="black"/>
</g>
<defs>
<clipPath id="clip0_8_5">
<rect width="200" height="50" rx="5" fill="white"/>
</clipPath>
</defs>
</svg>
