<svg xmlns="http://www.w3.org/2000/svg" version="1.1" xmlns:xlink="http://www.w3.org/1999/xlink" xmlns:svgjs="http://svgjs.com/svgjs" width="1440" height="560" preserveAspectRatio="none" viewBox="0 0 1440 560"><g mask="url(&quot;#SvgjsMask1000&quot;)" fill="none"><rect width="1440" height="560" x="0" y="0" fill="#1e3266"></rect><path d="M1464 560L0 560 L0 283.56Q77.08 288.64, 72 365.73Q137.69 311.42, 192 377.11Q230.16 295.27, 312 333.44Q353.38 302.82, 384 344.21Q402.03 290.24, 456 308.26Q499.69 279.95, 528 323.65Q575.82 299.47, 600 347.29Q626.65 253.94, 720 280.59Q793.79 234.38, 840 308.18Q922.91 271.09, 960 354Q1009.85 283.85, 1080 333.69Q1093.69 275.38, 1152 289.08Q1225.22 242.3, 1272 315.52Q1313.99 285.51, 1344 327.5Q1421.15 284.65, 1464 361.81z" fill="#182f5d"></path><path d="M1512 560L0 560 L0 431.57Q3.82 363.39, 72 367.22Q124.29 299.51, 192 351.8Q245.69 333.49, 264 387.18Q329.72 380.9, 336 446.63Q352.16 390.79, 408 406.95Q417.16 344.11, 480 353.27Q523.02 324.29, 552 367.32Q632.27 327.59, 672 407.85Q713.89 377.75, 744 419.64Q776.85 332.49, 864 365.33Q945.38 326.72, 984 408.1Q1035.16 339.26, 1104 390.42Q1131.04 345.46, 1176 372.49Q1230.77 355.26, 1248 410.04Q1300.54 390.58, 1320 443.12Q1320.72 371.84, 1392 372.56Q1446.71 307.27, 1512 361.99z" fill="#25467d"></path><path d="M1464 560L0 560 L0 461.13Q49.83 438.96, 72 488.79Q106.98 403.77, 192 438.75Q270.96 397.71, 312 476.66Q362.69 407.35, 432 458.04Q489.83 443.87, 504 501.7Q556.07 433.76, 624 485.83Q665.63 407.47, 744 449.1Q785.91 419.01, 816 460.92Q876.08 449, 888 509.09Q891.26 440.36, 960 443.62Q986.83 398.44, 1032 425.27Q1124.97 398.24, 1152 491.2Q1224.68 443.88, 1272 516.56Q1303.88 428.43, 1392 460.31Q1434.65 430.96, 1464 473.61z" fill="#356cb1"></path><path d="M1464 560L0 560 L0 546.56Q24.01 498.57, 72 522.57Q150.67 481.25, 192 559.92Q226.37 474.29, 312 508.66Q354.17 478.83, 384 521Q452.94 517.94, 456 586.88Q502.76 513.64, 576 560.4Q577.7 490.1, 648 491.79Q723.83 447.62, 768 523.45Q822.38 457.83, 888 512.2Q956.73 508.93, 960 577.67Q987.17 532.84, 1032 560.01Q1040.57 496.58, 1104 505.15Q1158.21 439.37, 1224 493.58Q1301.96 451.54, 1344 529.51Q1414.41 479.92, 1464 550.34z" fill="white"></path></g><defs><mask id="SvgjsMask1000"><rect width="1440" height="560" fill="#ffffff"></rect></mask></defs></svg>